REM DIRINDEX 1\8,1\2\11,1\3\12,1\3\14,1\5\15,1\5\16,1\6\17,1\6\18,1\4\19,1\4\20,1\4\21,1\4\22,1\7\23,1\7\24,1\7\25,1\2\9\26,1\2\9\27,1\2\10\28,1\2\10\29,1\2\10\30,1\2\10\31,1\2\10\32,1\3\13\33,1\3\13\34,1\3\13\35
REM DIRNAME cjc123,folder01,folder02,folder03,folder04,folder05,folder06,folder07,folder08,folder09,folder10,folder11,folder12,folder13,folder14,folder15,folder16,folder17,folder18,folder19,folder20,folder21,folder22,folder23,folder24,folder25,folder26,folder27,folder28,folder29,folder30,folder31,folder32,folder33,folder34
TITLE ""
FILE "2-45 045_UNIT4_SET4.mp3" MP3
  TRACK 01 AUDIO
    TITLE "11:cjc123_5174"
    INDEX 01 00:00:00
  TRACK 02 AUDIO
    TITLE "0:"
    INDEX 01 00:02:57
  TRACK 03 AUDIO
    TITLE "28:cjc123_5175"
    INDEX 01 00:03:39
  TRACK 04 AUDIO
    TITLE "0:"
    INDEX 01 00:04:56
  TRACK 05 AUDIO
    TITLE "29:cjc123_5176"
    INDEX 01 00:04:72
  TRACK 06 AUDIO
    TITLE "0:"
    INDEX 01 00:06:33
  TRACK 07 AUDIO
    TITLE "30:cjc123_5177"
    INDEX 01 00:06:49
  TRACK 08 AUDIO
    TITLE "0:"
    INDEX 01 00:07:66
  TRACK 09 AUDIO
    TITLE "31:cjc123_5178"
    INDEX 01 00:08:46
  TRACK 10 AUDIO
    TITLE "0:"
    INDEX 01 00:11:56
  TRACK 11 AUDIO
    TITLE "32:cjc123_5179"
    INDEX 01 00:12:03
  TRACK 12 AUDIO
    TITLE "0:"
    INDEX 01 00:14:72
  TRACK 13 AUDIO
    TITLE "28:cjc123_5180"
    INDEX 01 00:15:34
  TRACK 14 AUDIO
    TITLE "0:"
    INDEX 01 00:16:63
  TRACK 15 AUDIO
    TITLE "29:cjc123_5181"
    INDEX 01 00:17:20
  TRACK 16 AUDIO
    TITLE "0:"
    INDEX 01 00:18:50
  TRACK 17 AUDIO
    TITLE "30:cjc123_5182"
    INDEX 01 00:18:66
  TRACK 18 AUDIO
    TITLE "0:"
    INDEX 01 00:20:28
  TRACK 19 AUDIO
    TITLE "31:cjc123_5183"
    INDEX 01 00:21:09
  TRACK 20 AUDIO
    TITLE "0:"
    INDEX 01 00:27:06
  TRACK 21 AUDIO
    TITLE "32:cjc123_5184"
    INDEX 01 00:27:43
  TRACK 22 AUDIO
    TITLE "0:"
    INDEX 01 00:33:22
  TRACK 23 AUDIO
    TITLE "28:cjc123_5185"
    INDEX 01 00:33:73
  TRACK 24 AUDIO
    TITLE "0:"
    INDEX 01 00:35:12
  TRACK 25 AUDIO
    TITLE "29:cjc123_5186"
    INDEX 01 00:35:37
  TRACK 26 AUDIO
    TITLE "0:"
    INDEX 01 00:36:56
  TRACK 27 AUDIO
    TITLE "30:cjc123_5187"
    INDEX 01 00:36:68
  TRACK 28 AUDIO
    TITLE "0:"
    INDEX 01 00:38:02
  TRACK 29 AUDIO
    TITLE "31:cjc123_5188"
    INDEX 01 00:38:51
  TRACK 30 AUDIO
    TITLE "0:"
    INDEX 01 00:44:09
  TRACK 31 AUDIO
    TITLE "32:cjc123_5189"
    INDEX 01 00:44:63
  TRACK 32 AUDIO
    TITLE "0:"
    INDEX 01 00:50:03
  TRACK 33 AUDIO
    TITLE "28:cjc123_5190"
    INDEX 01 00:50:37
  TRACK 34 AUDIO
    TITLE "0:"
    INDEX 01 00:51:48
  TRACK 35 AUDIO
    TITLE "29:cjc123_5191"
    INDEX 01 00:51:73
  TRACK 36 AUDIO
    TITLE "0:"
    INDEX 01 00:52:73
  TRACK 37 AUDIO
    TITLE "30:cjc123_5192"
    INDEX 01 00:53:13
  TRACK 38 AUDIO
    TITLE "0:"
    INDEX 01 00:54:17
  TRACK 39 AUDIO
    TITLE "31:cjc123_5193"
    INDEX 01 00:55:14
  TRACK 40 AUDIO
    TITLE "0:"
    INDEX 01 00:58:69
  TRACK 41 AUDIO
    TITLE "32:cjc123_5194"
    INDEX 01 00:59:14
  TRACK 42 AUDIO
    TITLE "0:"
    INDEX 01 01:01:74
  TRACK 43 AUDIO
    TITLE "28:cjc123_5195"
    INDEX 01 01:02:22
  TRACK 44 AUDIO
    TITLE "0:"
    INDEX 01 01:03:39
  TRACK 45 AUDIO
    TITLE "29:cjc123_5196"
    INDEX 01 01:03:69
  TRACK 46 AUDIO
    TITLE "0:"
    INDEX 01 01:05:11
  TRACK 47 AUDIO
    TITLE "30:cjc123_5197"
    INDEX 01 01:05:30
  TRACK 48 AUDIO
    TITLE "0:"
    INDEX 01 01:06:45
  TRACK 49 AUDIO
    TITLE "31:cjc123_5198"
    INDEX 01 01:07:45
  TRACK 50 AUDIO
    TITLE "0:"
    INDEX 01 01:12:09
  TRACK 51 AUDIO
    TITLE "32:cjc123_5199"
    INDEX 01 01:12:34
  TRACK 52 AUDIO
    TITLE "0:"
    INDEX 01 01:16:34
  TRACK 53 AUDIO
    TITLE "28:cjc123_5200"
    INDEX 01 01:16:46
  TRACK 54 AUDIO
    TITLE "0:"
    INDEX 01 01:17:51
  TRACK 55 AUDIO
    TITLE "29:cjc123_5201"
    INDEX 01 01:18:04
  TRACK 56 AUDIO
    TITLE "0:"
    INDEX 01 01:19:32
  TRACK 57 AUDIO
    TITLE "30:cjc123_5202"
    INDEX 01 01:19:46
  TRACK 58 AUDIO
    TITLE "0:"
    INDEX 01 01:20:44
  TRACK 59 AUDIO
    TITLE "31:cjc123_5203"
    INDEX 01 01:21:49
  TRACK 60 AUDIO
    TITLE "0:"
    INDEX 01 01:25:58
  TRACK 61 AUDIO
    TITLE "32:cjc123_5204"
    INDEX 01 01:26:13
  TRACK 62 AUDIO
    TITLE "0:"
    INDEX 01 01:30:34
  TRACK 63 AUDIO
    TITLE "28:cjc123_5205"
    INDEX 01 01:30:60
  TRACK 64 AUDIO
    TITLE "0:"
    INDEX 01 01:32:04
  TRACK 65 AUDIO
    TITLE "29:cjc123_5206"
    INDEX 01 01:32:23
  TRACK 66 AUDIO
    TITLE "0:"
    INDEX 01 01:33:54
  TRACK 67 AUDIO
    TITLE "30:cjc123_5207"
    INDEX 01 01:33:74
  TRACK 68 AUDIO
    TITLE "0:"
    INDEX 01 01:35:18
  TRACK 69 AUDIO
    TITLE "31:cjc123_5208"
    INDEX 01 01:35:69
  TRACK 70 AUDIO
    TITLE "0:"
    INDEX 01 01:41:22
  TRACK 71 AUDIO
    TITLE "32:cjc123_5209"
    INDEX 01 01:41:71
  TRACK 72 AUDIO
    TITLE "0:"
    INDEX 01 01:46:06
  TRACK 73 AUDIO
    TITLE "28:cjc123_5210"
    INDEX 01 01:46:37
  TRACK 74 AUDIO
    TITLE "0:"
    INDEX 01 01:47:37
  TRACK 75 AUDIO
    TITLE "29:cjc123_5211"
    INDEX 01 01:47:54
  TRACK 76 AUDIO
    TITLE "0:"
    INDEX 01 01:49:00
  TRACK 77 AUDIO
    TITLE "30:cjc123_5212"
    INDEX 01 01:49:12
  TRACK 78 AUDIO
    TITLE "0:"
    INDEX 01 01:50:11
  TRACK 79 AUDIO
    TITLE "31:cjc123_5213"
    INDEX 01 01:50:74
  TRACK 80 AUDIO
    TITLE "0:"
    INDEX 01 01:54:58
  TRACK 81 AUDIO
    TITLE "32:cjc123_5214"
    INDEX 01 01:55:15
  TRACK 82 AUDIO
    TITLE "0:"
    INDEX 01 01:58:58
  TRACK 83 AUDIO
    TITLE "28:cjc123_5215"
    INDEX 01 01:59:36
  TRACK 84 AUDIO
    TITLE "0:"
    INDEX 01 02:00:59
  TRACK 85 AUDIO
    TITLE "29:cjc123_5216"
    INDEX 01 02:01:03
  TRACK 86 AUDIO
    TITLE "0:"
    INDEX 01 02:02:58
  TRACK 87 AUDIO
    TITLE "30:cjc123_5217"
    INDEX 01 02:02:71
  TRACK 88 AUDIO
    TITLE "0:"
    INDEX 01 02:03:69
  TRACK 89 AUDIO
    TITLE "31:cjc123_5218"
    INDEX 01 02:04:49
  TRACK 90 AUDIO
    TITLE "0:"
    INDEX 01 02:08:56
  TRACK 91 AUDIO
    TITLE "32:cjc123_5219"
    INDEX 01 02:09:30
  TRACK 92 AUDIO
    TITLE "0:"
    INDEX 01 02:14:59
  TRACK 93 AUDIO
    TITLE "28:cjc123_5220"
    INDEX 01 02:15:11
  TRACK 94 AUDIO
    TITLE "0:"
    INDEX 01 02:16:24
  TRACK 95 AUDIO
    TITLE "29:cjc123_5221"
    INDEX 01 02:16:48
  TRACK 96 AUDIO
    TITLE "0:"
    INDEX 01 02:18:45
  TRACK 97 AUDIO
    TITLE "30:cjc123_5222"
    INDEX 01 02:18:65
  TRACK 98 AUDIO
    TITLE "0:"
    INDEX 01 02:20:03
  TRACK 99 AUDIO
    TITLE "31:cjc123_5223"
    INDEX 01 02:21:22
  TRACK 100 AUDIO
    TITLE "0:"
    INDEX 01 02:25:33
  TRACK 101 AUDIO
    TITLE "32:cjc123_5224"
    INDEX 01 02:26:17
  TRACK 102 AUDIO
    TITLE "0:"
    INDEX 01 02:30:11
  TRACK 103 AUDIO
    TITLE "28:cjc123_5225"
    INDEX 01 02:30:36
  TRACK 104 AUDIO
    TITLE "0:"
    INDEX 01 02:31:61
  TRACK 105 AUDIO
    TITLE "29:cjc123_5226"
    INDEX 01 02:32:02
  TRACK 106 AUDIO
    TITLE "0:"
    INDEX 01 02:33:11
  TRACK 107 AUDIO
    TITLE "30:cjc123_5227"
    INDEX 01 02:33:41
  TRACK 108 AUDIO
    TITLE "0:"
    INDEX 01 02:34:50
  TRACK 109 AUDIO
    TITLE "31:cjc123_5228"
    INDEX 01 02:35:22
  TRACK 110 AUDIO
    TITLE "0:"
    INDEX 01 02:39:47
  TRACK 111 AUDIO
    TITLE "32:cjc123_5229"
    INDEX 01 02:40:03
  TRACK 112 AUDIO
    TITLE "0:"
    INDEX 01 02:44:38
  TRACK 113 AUDIO
    TITLE "28:cjc123_5230"
    INDEX 01 02:45:10
  TRACK 114 AUDIO
    TITLE "0:"
    INDEX 01 02:46:31
  TRACK 115 AUDIO
    TITLE "29:cjc123_5231"
    INDEX 01 02:46:55
  TRACK 116 AUDIO
    TITLE "0:"
    INDEX 01 02:47:47
  TRACK 117 AUDIO
    TITLE "30:cjc123_5232"
    INDEX 01 02:47:74
  TRACK 118 AUDIO
    TITLE "0:"
    INDEX 01 02:49:08
  TRACK 119 AUDIO
    TITLE "31:cjc123_5233"
    INDEX 01 02:49:71
  TRACK 120 AUDIO
    TITLE "0:"
    INDEX 01 02:55:44
  TRACK 121 AUDIO
    TITLE "32:cjc123_5234"
    INDEX 01 02:56:18
  TRACK 122 AUDIO
    TITLE "0:"
    INDEX 01 03:02:17
  TRACK 123 AUDIO
    TITLE "28:cjc123_5235"
    INDEX 01 03:02:46
  TRACK 124 AUDIO
    TITLE "0:"
    INDEX 01 03:03:55
  TRACK 125 AUDIO
    TITLE "29:cjc123_5236"
    INDEX 01 03:04:06
  TRACK 126 AUDIO
    TITLE "0:"
    INDEX 01 03:05:05
  TRACK 127 AUDIO
    TITLE "30:cjc123_5237"
    INDEX 01 03:05:21
  TRACK 128 AUDIO
    TITLE "0:"
    INDEX 01 03:06:24
  TRACK 129 AUDIO
    TITLE "31:cjc123_5238"
    INDEX 01 03:07:00
  TRACK 130 AUDIO
    TITLE "0:"
    INDEX 01 03:11:47
  TRACK 131 AUDIO
    TITLE "32:cjc123_5239"
    INDEX 01 03:12:03
  TRACK 132 AUDIO
    TITLE "0:"
    INDEX 01 03:16:58
  TRACK 133 AUDIO
    TITLE "28:cjc123_5240"
    INDEX 01 03:17:26
  TRACK 134 AUDIO
    TITLE "0:"
    INDEX 01 03:18:26
  TRACK 135 AUDIO
    TITLE "29:cjc123_5241"
    INDEX 01 03:18:57
  TRACK 136 AUDIO
    TITLE "0:"
    INDEX 01 03:19:58
  TRACK 137 AUDIO
    TITLE "30:cjc123_5242"
    INDEX 01 03:20:01
  TRACK 138 AUDIO
    TITLE "0:"
    INDEX 01 03:21:16
  TRACK 139 AUDIO
    TITLE "31:cjc123_5243"
    INDEX 01 03:21:51
  TRACK 140 AUDIO
    TITLE "0:"
    INDEX 01 03:25:00
  TRACK 141 AUDIO
    TITLE "32:cjc123_5244"
    INDEX 01 03:25:41
  TRACK 142 AUDIO
    TITLE "0:"
    INDEX 01 03:29:43
  TRACK 143 AUDIO
    TITLE "28:cjc123_5245"
    INDEX 01 03:30:11
  TRACK 144 AUDIO
    TITLE "0:"
    INDEX 01 03:31:24
  TRACK 145 AUDIO
    TITLE "29:cjc123_5246"
    INDEX 01 03:31:44
  TRACK 146 AUDIO
    TITLE "0:"
    INDEX 01 03:33:04
  TRACK 147 AUDIO
    TITLE "30:cjc123_5247"
    INDEX 01 03:33:21
  TRACK 148 AUDIO
    TITLE "0:"
    INDEX 01 03:34:27
  TRACK 149 AUDIO
    TITLE "31:cjc123_5248"
    INDEX 01 03:34:74
  TRACK 150 AUDIO
    TITLE "0:"
    INDEX 01 03:38:73
  TRACK 151 AUDIO
    TITLE "32:cjc123_5249"
    INDEX 01 03:39:30
  TRACK 152 AUDIO
    TITLE "0:"
    INDEX 01 03:44:03
